<svg xmlns="http://www.w3.org/2000/svg"><symbol viewBox="0 0 21.107723 22.039572" id="svgexport-3"><path fill-rule="evenodd" clip-rule="evenodd" d="M5.53 7.87a7.4 7.4 0 0 0-.667 3.178 10 10 0 0 0-1.41.41 8.834 8.834 0 1 1 12.782 7.38 9.6 9.6 0 0 0-.35-1.426 7.4 7.4 0 0 0 2.42-2.167zm4.176-3.88a7.38 7.38 0 0 0-3.464 2.646l5.771 3.331.984-1.704a8.8 8.8 0 0 1-3.291-4.274m4.525 4.985-.985 1.705 5.771 3.331c.6-1.316.82-2.815.56-4.322a8.8 8.8 0 0 1-5.346-.714m4.97-.667a7.38 7.38 0 0 1-4.255-.571l1.632-2.828a7.38 7.38 0 0 1 2.623 3.399m-5.489-1.284a7.38 7.38 0 0 1-2.622-3.399 7.38 7.38 0 0 1 4.255.572z" fill="#B3ADD6"/><path fill-rule="evenodd" clip-rule="evenodd" d="M14.932 20.759a8.122 8.122 0 0 1-12.491-7.212 8.122 8.122 0 0 1 12.491 7.212m-8.375-3.912a.712.712 0 1 0 1.234.712l.8-1.385a.712.712 0 1 0-1.234-.712zm-2.225-1.284a.712.712 0 1 0 1.233.712l.8-1.386a.712.712 0 1 0-1.233-.712zm4.711 3.542a.71.71 0 0 1-.26-.973l.8-1.385a.712.712 0 0 1 1.233.712l-.8 1.385a.71.71 0 0 1-.973.261m1.965.312a.712.712 0 1 0 1.233.712l.8-1.385a.712.712 0 0 0-1.233-.712z" fill="#B3ADD6"/></symbol><symbol viewBox="0 0 22.042334 20.662767" id="svgexport-4"><path d="M5.866 4.722c-3.388 4.02-3.388 10.537 0 14.556a.92.92 0 0 1 0 1.147.61.61 0 0 1-.967 0c-3.922-4.653-3.922-12.197 0-16.85a.61.61 0 0 1 .967 0 .92.92 0 0 1 0 1.147M18.135 3.575a.61.61 0 0 1 .966 0c3.922 4.653 3.922 12.197 0 16.85a.61.61 0 0 1-.966 0 .92.92 0 0 1 0-1.147c3.387-4.02 3.387-10.537 0-14.556a.92.92 0 0 1 0-1.147" fill="#B3ADD6"/><path fill-rule="evenodd" clip-rule="evenodd" d="M9.112 12c0-1.697 1.17-3.315 2.888-3.315S14.89 10.303 14.89 12 13.717 15.315 12 15.315 9.112 13.697 9.112 12M12 10.185c-.645 0-1.389.68-1.389 1.815 0 1.136.744 1.815 1.39 1.815.644 0 1.388-.68 1.388-1.815 0-1.136-.744-1.815-1.389-1.815" fill="#B3ADD6"/><path d="M8.337 16.347c-2.024-2.401-2.024-6.293 0-8.694a.92.92 0 0 0 0-1.146.61.61 0 0 0-.967 0c-2.557 3.033-2.557 7.953 0 10.987a.61.61 0 0 0 .967 0 .92.92 0 0 0 0-1.147M16.63 6.507a.61.61 0 0 0-.967 0 .92.92 0 0 0 0 1.146c2.024 2.401 2.024 6.293 0 8.694a.92.92 0 0 0 0 1.146.61.61 0 0 0 .967 0c2.557-3.033 2.557-7.953 0-10.986" fill="#B3ADD6"/></symbol><symbol viewBox="0 0 22.020334 20.751333" id="svgexport-5"><path d="M12.989 1.638c-.39-.843-1.589-.843-1.978 0l-.577 1.252-1.37.163c-.922.109-1.293 1.25-.61 1.88l1.012.936-.269 1.353c-.181.911.79 1.616 1.6 1.162L12 7.711l1.203.673c.81.454 1.781-.251 1.6-1.162l-.269-1.353 1.012-.936c.683-.63.312-1.771-.61-1.88l-1.37-.163zM13.539 10.2a4.5 4.5 0 0 0-3.078 0c-.64.234-.975.829-1.025 1.39-.252 2.845-.243 4.67-.002 7.5.052.604.432 1.222 1.114 1.436.956.299 1.948.299 2.904 0 .682-.214 1.063-.832 1.114-1.437.241-2.83.25-4.654-.002-7.5-.05-.56-.385-1.155-1.025-1.39M20.678 12.314c-.911-.24-1.9-.24-2.812 0-.697.183-1.108.794-1.176 1.406-.228 2.037-.22 3.415-.002 5.437.07.651.52 1.278 1.248 1.443.882.2 1.79.2 2.672 0 .727-.165 1.178-.792 1.248-1.443.218-2.022.225-3.4-.002-5.437-.069-.612-.479-1.223-1.176-1.406M6.272 14.782a8.2 8.2 0 0 0-2.544 0 1.63 1.63 0 0 0-1.346 1.37c-.178 1.135-.173 1.994-.002 3.116a1.65 1.65 0 0 0 1.396 1.398c.81.112 1.638.112 2.448 0a1.65 1.65 0 0 0 1.396-1.398c.171-1.122.176-1.98-.002-3.115a1.63 1.63 0 0 0-1.346-1.37" fill="#B3ADD6"/></symbol><symbol viewBox="0 0 22.002 22.234999" id="svgexport-6"><path d="M4.255 2.05c-.765-.2-1.048.541-.37.946C5.68 4.068 7.794 5.33 8.065 8.972c.038.522-.375.954-.896 1q-.366.033-.75.072a.957.957 0 0 0-.752 1.409c1.022 1.87 2.034 3.163 3.79 4.873a.97.97 0 0 0 1.356 0c1.757-1.711 2.77-3.004 3.792-4.877a.956.956 0 0 0-.75-1.407 47 47 0 0 0-.819-.08c-.486-.042-.872-.424-.995-.896-.804-3.074-4.242-6.091-7.785-7.016" fill="#B3ADD6"/><path d="M11.716 5.172c1.666-.04 2.876.038 4.112.213.976.139 1.554.718 1.6 1.295l.006.08c-1.086-.12-2.2-.202-3.323-.247a1 1 0 0 0-.081 1.998 47 47 0 0 1 3.35.255 2.54 2.54 0 0 1 2.212 1.98c.55 2.586.537 4.603.004 7.185-.227 1.1-1.161 1.928-2.31 2.042-3.49.349-7.082.349-10.572 0-1.152-.115-2.047-.939-2.206-2.006-.445-2.982-.415-6.452.136-8.915.064-.282.347-.54.776-.54a1 1 0 0 0 0-2c-1.221 0-2.43.774-2.727 2.103-.618 2.76-.635 6.486-.163 9.647.305 2.049 2 3.503 3.985 3.701 3.623.362 7.347.362 10.97 0 1.987-.198 3.66-1.64 4.07-3.627.587-2.843.602-5.14-.007-8.006a4.5 4.5 0 0 0-2.097-2.927c0-.28-.005-.578-.03-.882-.15-1.886-1.842-2.907-3.312-3.116-1.355-.192-2.675-.274-4.44-.233a1 1 0 1 0 .046 2" fill="#B3ADD6"/><path d="M15.179 14.373a1 1 0 0 1 1-1h1.649a1 1 0 1 1 0 2h-1.65a1 1 0 0 1-1-1" fill="#B3ADD6"/></symbol><symbol viewBox="0 0 21.797333 22.5778" id="svgexport-7"><path d="M16.778 7.74a1.914 1.914 0 1 1-3.828 0 1.914 1.914 0 0 1 3.828 0M6.447 17.306a1.914 1.914 0 1 0 0-3.829 1.914 1.914 0 0 0 0 3.828M15.828 17.91a1.914 1.914 0 1 0 0-3.828 1.914 1.914 0 0 0 0 3.828M13.914 18.477a1.914 1.914 0 1 1-3.828 0 1.914 1.914 0 0 1 3.828 0M12.95 13.477a1.914 1.914 0 1 1-3.828 0 1.914 1.914 0 0 1 3.828 0M8.36 10.69a1.914 1.914 0 1 1-3.827 0 1.914 1.914 0 0 1 3.828 0" fill="#B3ADD6"/><path fill-rule="evenodd" clip-rule="evenodd" d="M14.375 2.059a4.75 4.75 0 0 0-4.75 0L4.578 4.972a4.75 4.75 0 0 0-2.375 4.114v5.828a4.75 4.75 0 0 0 2.375 4.113l5.047 2.914a4.75 4.75 0 0 0 4.75 0l5.047-2.914a4.75 4.75 0 0 0 2.375-4.113V9.086a4.75 4.75 0 0 0-2.375-4.114zm-4 1.299a3.25 3.25 0 0 1 3.25 0l5.047 2.913a3.25 3.25 0 0 1 1.625 2.815v5.828a3.25 3.25 0 0 1-1.625 2.814l-5.047 2.914a3.25 3.25 0 0 1-3.25 0l-5.047-2.914a3.25 3.25 0 0 1-1.625-2.814V9.086a3.25 3.25 0 0 1 1.625-2.815z" fill="#B3ADD6"/></symbol><symbol viewBox="0 0 21.750666 21.94033" id="svgexport-8"><path d="M13.25 12.752a1.25 1.25 0 1 1-2.5 0 1.25 1.25 0 0 1 2.5 0M8.75 12.752a1.25 1.25 0 1 1-2.5 0 1.25 1.25 0 0 1 2.5 0M16.5 14.002a1.25 1.25 0 1 0 0-2.5 1.25 1.25 0 0 0 0 2.5M8.75 17.27a1.25 1.25 0 1 1-2.5 0 1.25 1.25 0 0 1 2.5 0M12 18.52a1.25 1.25 0 1 0 0-2.5 1.25 1.25 0 0 0 0 2.5M17.75 17.27a1.25 1.25 0 1 1-2.5 0 1.25 1.25 0 0 1 2.5 0" fill="#B3ADD6"/><path fill-rule="evenodd" clip-rule="evenodd" d="M8.24 3v.959a42 42 0 0 1 3-.16V3c0-.967 1.5-.967 1.5 0v.8c1.007.017 2.011.07 3 .157V3c0-.967 1.5-.967 1.5 0V4.12c1.962.25 3.606 1.527 3.985 3.543.709 3.766.69 6.636.006 10.376a4.39 4.39 0 0 1-3.788 3.578c-3.595.431-7.29.431-10.886 0a4.39 4.39 0 0 1-3.788-3.578c-.683-3.74-.703-6.61.006-10.376.377-2.004 2.01-3.29 3.965-3.54V3c0-.967 1.5-.967 1.5 0m-1.5 2.634c-1.997.27-2.497 2.083-2.741 3.816 5.05-.877 10.952-.877 16.002 0-.247-1.75-.753-3.548-2.761-3.819v.875c0 .967-1.5.967-1.5 0V5.463a41 41 0 0 0-3-.163v1.206c0 .967-1.5.967-1.5 0V5.3a41 41 0 0 0-3 .165v1.041c0 .967-1.5.967-1.5 0zM4.245 17.768c-.456-2.496-.602-4.56-.417-6.8 5.171-.873 11.172-.874 16.344-.001.185 2.24.04 4.305-.417 6.801a2.89 2.89 0 0 1-2.49 2.358 44.4 44.4 0 0 1-10.53 0 2.89 2.89 0 0 1-2.49-2.358" fill="#B3ADD6"/></symbol><symbol xmlns:xlink="http://www.w3.org/1999/xlink" xmlns="http://www.w3.org/2000/svg" viewBox="0 0 24 24" fill="none" id="svgexport-1" class="m-icon m-icon-loadable" name="CasinoPeakRounded" loading="false" width="24" height="24"><path fill-rule="evenodd" clip-rule="evenodd" d="M15.195 18.712c.187.369.357.704.454.978.093.265.204.698-.05 1.104-.188.298-.504.45-.73.535-.253.096-.55.161-.855.207-.615.094-1.362.123-2.086.107a14.6 14.6 0 0 1-2.04-.177 5 5 0 0 1-.792-.19 2 2 0 0 1-.34-.153c-.1-.058-.248-.16-.354-.33-.255-.405-.144-.838-.05-1.103.096-.274.266-.609.453-.978.036-.068.093-.185.163-.331a64 64 0 0 0 .602-1.308.209.209 0 0 0-.241-.287 5.4 5.4 0 0 1-1.347.16 5.15 5.15 0 0 1-3.05-1.02c-1.42-1.056-1.838-2.531-1.632-4.052.2-1.479.982-3.018 1.965-4.386A18 18 0 0 1 8.67 3.93c.59-.461 1.18-.847 1.728-1.12.536-.267 1.093-.457 1.602-.457s1.066.19 1.602.457c.549.273 1.138.659 1.728 1.12a18 18 0 0 1 3.405 3.558c.983 1.368 1.766 2.907 1.965 4.386.206 1.52-.212 2.996-1.633 4.051a5.15 5.15 0 0 1-3.049 1.02 5.4 5.4 0 0 1-1.346-.159.208.208 0 0 0-.243.287l.11.243c.164.364.354.772.494 1.065.07.146.127.263.162.331" fill="#B3ADD6"/></symbol></svg>